<svg id="visual" viewBox="0 0 900 600" width="900" height="600" xmlns="http://www.w3.org/2000/svg" xmlns:xlink="http://www.w3.org/1999/xlink" version="1.1"><rect x="0" y="0" width="900" height="600" fill="#001220"></rect><defs><linearGradient id="grad1_0" x1="33.3%" y1="0%" x2="100%" y2="100%"><stop offset="20%" stop-color="#0066ff" stop-opacity="1"></stop><stop offset="80%" stop-color="#0066ff" stop-opacity="1"></stop></linearGradient></defs><defs><linearGradient id="grad1_1" x1="33.3%" y1="0%" x2="100%" y2="100%"><stop offset="20%" stop-color="#0066ff" stop-opacity="1"></stop><stop offset="80%" stop-color="#00408b" stop-opacity="1"></stop></linearGradient></defs><defs><linearGradient id="grad1_2" x1="33.3%" y1="0%" x2="100%" y2="100%"><stop offset="20%" stop-color="#001220" stop-opacity="1"></stop><stop offset="80%" stop-color="#00408b" stop-opacity="1"></stop></linearGradient></defs><defs><linearGradient id="grad2_0" x1="0%" y1="0%" x2="66.7%" y2="100%"><stop offset="20%" stop-color="#0066ff" stop-opacity="1"></stop><stop offset="80%" stop-color="#0066ff" stop-opacity="1"></stop></linearGradient></defs><defs><linearGradient id="grad2_1" x1="0%" y1="0%" x2="66.7%" y2="100%"><stop offset="20%" stop-color="#00408b" stop-opacity="1"></stop><stop offset="80%" stop-color="#0066ff" stop-opacity="1"></stop></linearGradient></defs><defs><linearGradient id="grad2_2" x1="0%" y1="0%" x2="66.7%" y2="100%"><stop offset="20%" stop-color="#00408b" stop-opacity="1"></stop><stop offset="80%" stop-color="#001220" stop-opacity="1"></stop></linearGradient></defs><g transform="translate(900, 0)"><path d="M0 378.6C-41 354.3 -81.9 330 -130.9 316C-179.8 301.9 -236.7 298 -267.7 267.7C-298.7 237.4 -303.7 180.7 -317.8 131.6C-332 82.6 -355.3 41.3 -378.6 0L0 0Z" fill="#002a53"></path><path d="M0 252.4C-27.3 236.2 -54.6 220 -87.3 210.6C-119.9 201.3 -157.8 198.7 -178.5 178.5C-199.1 158.3 -202.4 120.4 -211.9 87.8C-221.3 55.1 -236.9 27.5 -252.4 0L0 0Z" fill="#0055c6"></path><path d="M0 126.2C-13.7 118.1 -27.3 110 -43.6 105.3C-59.9 100.6 -78.9 99.3 -89.2 89.2C-99.6 79.1 -101.2 60.2 -105.9 43.9C-110.7 27.5 -118.4 13.8 -126.2 0L0 0Z" fill="#0066ff"></path></g><g transform="translate(0, 600)"><path d="M0 -378.6C52.2 -375.7 104.4 -372.8 144.9 -349.8C185.4 -326.7 214.2 -283.4 246.8 -246.8C279.3 -210.1 315.6 -180.1 338.1 -140.1C360.7 -100 369.7 -50 378.6 0L0 0Z" fill="#002a53"></path><path d="M0 -252.4C34.8 -250.5 69.6 -248.6 96.6 -233.2C123.6 -217.8 142.8 -189 164.5 -164.5C186.2 -140.1 210.4 -120.1 225.4 -93.4C240.5 -66.7 246.4 -33.3 252.4 0L0 0Z" fill="#0055c6"></path><path d="M0 -126.2C17.4 -125.2 34.8 -124.3 48.3 -116.6C61.8 -108.9 71.4 -94.5 82.3 -82.3C93.1 -70 105.2 -60 112.7 -46.7C120.2 -33.3 123.2 -16.7 126.2 0L0 0Z" fill="#0066ff"></path></g></svg>