<svg id="visual" viewBox="0 0 900 600" width="900" height="600" xmlns="http://www.w3.org/2000/svg" xmlns:xlink="http://www.w3.org/1999/xlink" version="1.1"><rect x="0" y="0" width="900" height="600" fill="#002233"></rect><path d="M724 600L713 585.7C702 571.3 680 542.7 663.8 514.2C647.7 485.7 637.3 457.3 642 428.8C646.7 400.3 666.3 371.7 675 343C683.7 314.3 681.3 285.7 663.3 257C645.3 228.3 611.7 199.7 613 171.2C614.3 142.7 650.7 114.3 663.5 85.8C676.3 57.3 665.7 28.7 660.3 14.3L655 0L900 0L900 14.3C900 28.7 900 57.3 900 85.8C900 114.3 900 142.7 900 171.2C900 199.7 900 228.3 900 257C900 285.7 900 314.3 900 343C900 371.7 900 400.3 900 428.8C900 457.3 900 485.7 900 514.2C900 542.7 900 571.3 900 585.7L900 600Z" fill="#0066FF" stroke-linecap="round" stroke-linejoin="miter"></path></svg>